<svg width="21" height="21" viewBox="0 0 21 21" fill="none" xmlns="http://www.w3.org/2000/svg">
<path d="M14.875 7.4375C15.5999 7.4375 16.1875 6.84987 16.1875 6.125C16.1875 5.40013 15.5999 4.8125 14.875 4.8125C14.1501 4.8125 13.5625 5.40013 13.5625 6.125C13.5625 6.84987 14.1501 7.4375 14.875 7.4375Z" fill="black"/>
<path d="M14 2.625C16.415 2.625 18.375 4.585 18.375 7V14C18.375 16.415 16.415 18.375 14 18.375H7C4.585 18.375 2.625 16.415 2.625 14V7C2.625 4.585 4.585 2.625 7 2.625H10.5H14Z" stroke="black" stroke-width="2" stroke-linecap="round" stroke-linejoin="round"/>
<path d="M10.5 7C12.4338 7 14 8.56625 14 10.5C14 12.4338 12.4338 14 10.5 14C8.56625 14 7 12.4338 7 10.5C7 8.56625 8.56625 7 10.5 7Z" stroke="black" stroke-width="2" stroke-linecap="round" stroke-linejoin="round"/>
</svg>
