<svg width="24" height="24" viewBox="0 0 24 24" fill="none" xmlns="http://www.w3.org/2000/svg">
<path d="M8.63753 8.99584L11.3045 4.59384C11.3912 4.45318 11.4952 4.35484 11.6165 4.29884C11.7379 4.24284 11.8659 4.21484 12.0005 4.21484C12.1352 4.21484 12.2632 4.24284 12.3845 4.29884C12.5059 4.35484 12.6099 4.45318 12.6965 4.59384L15.3635 8.99584C15.4509 9.13051 15.4945 9.27184 15.4945 9.41984C15.4945 9.56784 15.4592 9.70418 15.3885 9.82884C15.3179 9.95351 15.2232 10.0518 15.1045 10.1238C14.9859 10.1958 14.8465 10.2322 14.6865 10.2328H9.31453C9.15386 10.2328 9.0132 10.1958 8.89253 10.1218C8.77186 10.0478 8.67853 9.95018 8.61253 9.82884C8.54186 9.70884 8.50653 9.57551 8.50653 9.42884C8.50653 9.28218 8.54986 9.13784 8.63653 8.99584M17.5005 21.2328C16.4559 21.2328 15.5729 20.8722 14.8515 20.1508C14.1302 19.4295 13.7695 18.5465 13.7695 17.5018C13.7695 16.4572 14.1302 15.5742 14.8515 14.8528C15.5729 14.1315 16.4559 13.7708 17.5005 13.7708C18.5452 13.7708 19.4282 14.1315 20.1495 14.8528C20.8709 15.5742 21.2315 16.4572 21.2315 17.5018C21.2315 18.5465 20.8709 19.4295 20.1495 20.1508C19.4282 20.8722 18.5452 21.2328 17.5005 21.2328ZM3.77053 19.9238V15.0738C3.77053 14.8452 3.84753 14.6542 4.00153 14.5008C4.15686 14.3475 4.34886 14.2708 4.57753 14.2708H9.42753C9.65686 14.2708 9.8482 14.3482 10.0015 14.5028C10.1549 14.6582 10.2315 14.8505 10.2315 15.0798V19.9298C10.2315 20.1585 10.1539 20.3495 9.99853 20.5028C9.84386 20.6562 9.65186 20.7328 9.42253 20.7328H4.57253C4.34386 20.7328 4.15286 20.6552 3.99953 20.4998C3.8462 20.3452 3.77053 20.1532 3.77053 19.9238ZM17.4995 20.2328C18.2642 20.2328 18.9109 19.9688 19.4395 19.4408C19.9682 18.9128 20.2322 18.2665 20.2315 17.5018C20.2309 16.7372 19.9669 16.0908 19.4395 15.5628C18.9122 15.0348 18.2659 14.7708 17.5005 14.7708C16.7352 14.7708 16.0889 15.0348 15.5615 15.5628C15.0342 16.0908 14.7702 16.7372 14.7695 17.5018C14.7689 18.2665 15.0329 18.9128 15.5615 19.4408C16.0902 19.9688 16.7362 20.2328 17.4995 20.2328ZM4.76953 19.7328H9.23153V15.2708H4.76953V19.7328ZM9.62753 9.23284H14.3735L12.0005 5.42884L9.62753 9.23284Z" fill="black"/>
</svg>
