<svg width="22" height="22" viewBox="0 0 22 22" fill="none" xmlns="http://www.w3.org/2000/svg">
<path d="M14.319 19.36C13.8034 19.875 13.1044 20.1642 12.3757 20.1642C11.6469 20.1642 10.9479 19.875 10.4323 19.36L2.79648 11.9167C2.24648 11.4125 1.83398 10.6608 1.83398 9.85417V5.5C1.83398 4.77065 2.12372 4.07118 2.63944 3.55546C3.15517 3.03973 3.85464 2.75 4.58398 2.75H8.93815C9.74482 2.75 10.4965 3.1625 11.0007 3.7125L18.3982 11.3942C18.9131 11.9098 19.2024 12.6087 19.2024 13.3375C19.2024 14.0663 18.9131 14.7652 18.3982 15.2808L14.319 19.36ZM13.6682 18.7092L17.7473 14.63C18.4623 13.915 18.4623 12.7508 17.7473 12.0358L10.1848 4.19833C9.88232 3.85 9.44232 3.66667 8.93815 3.66667L4.55648 3.63917C3.54815 3.63917 2.75065 4.49167 2.75065 5.5V9.85417C2.75065 10.3583 2.93398 10.7983 3.28232 11.1008L11.074 18.7092C11.789 19.4242 12.9532 19.4242 13.6682 18.7092ZM5.95898 4.58333C6.56677 4.58333 7.14967 4.82478 7.57944 5.25455C8.00921 5.68432 8.25065 6.26721 8.25065 6.875C8.25065 7.48279 8.00921 8.06568 7.57944 8.49545C7.14967 8.92522 6.56677 9.16667 5.95898 9.16667C5.3512 9.16667 4.7683 8.92522 4.33853 8.49545C3.90876 8.06568 3.66732 7.48279 3.66732 6.875C3.66732 6.26721 3.90876 5.68432 4.33853 5.25455C4.7683 4.82478 5.3512 4.58333 5.95898 4.58333ZM5.95898 5.5C5.59431 5.5 5.24458 5.64487 4.98671 5.90273C4.72885 6.16059 4.58398 6.51033 4.58398 6.875C4.58398 7.23967 4.72885 7.58941 4.98671 7.84727C5.24458 8.10513 5.59431 8.25 5.95898 8.25C6.32366 8.25 6.67339 8.10513 6.93126 7.84727C7.18912 7.58941 7.33398 7.23967 7.33398 6.875C7.33398 6.51033 7.18912 6.16059 6.93126 5.90273C6.67339 5.64487 6.32366 5.5 5.95898 5.5Z" fill="black"/>
</svg>
